# xmcd CD database file
#
# Track frame offsets:
#	182
#	12717
#	26940
#	42145
#	61660
#	76197
#	91872
#	106612
#	122482
#	138942
#	152262
#	168952
#	184100
#	200600
#	216017
#	231142
#	247487
#	265595
#	280052
#	295457
#
# Disc length: 4129 seconds
#
# Revision: 1
# Processed by: cddbd v1.5.2PL0 Copyright (c) Steve Scherf et al.
# Submitted via: CDex 2.13
#
DISCID=0e101f14
DTITLE=Bellamy Brothers - Diamond Star Collection
DYEAR=1994
DGENRE=Country
TTITLE0=Let Your Love Flow
TTITLE1=If I Said You Had A Beautiful Body
TTITLE2=I Need More Of You
TTITLE3=You Ain't Just Whistlin' Dixie
TTITLE4=Dancin' Cowboys
TTITLE5=Sugar Daddy
TTITLE6=Lovers Live Longer
TTITLE7=Crazy From The Heart
TTITLE8=Feelin' The Feelin'
TTITLE9=Do You Love As Good As You Look
TTITLE10=For All The Wrong Reasons
TTITLE11=Redneck Girl
TTITLE12=When I'm Away From You
TTITLE13=I'd Lie To You For My Love
TTITLE14=You'll Never Be Sorry
TTITLE15=Santa Fee
TTITLE16=Old Hippie
TTITLE17=Big Love
TTITLE18=Kids Of The Baby Boom
TTITLE19=Get Into Reggae Cowboy
EXTD=YEAR: 1994
EXTT0=
EXTT1=
EXTT2=
EXTT3=
EXTT4=
EXTT5=
EXTT6=
EXTT7=
EXTT8=
EXTT9=
EXTT10=
EXTT11=
EXTT12=
EXTT13=
EXTT14=
EXTT15=
EXTT16=
EXTT17=
EXTT18=
EXTT19=
PLAYORDER=
